%TF.GenerationSoftware,KiCad,Pcbnew,10.0.3*%
%TF.CreationDate,2026-07-12T21:41:13-04:00*%
%TF.ProjectId,uv_test,75765f74-6573-4742-9e6b-696361645f70,rev?*%
%TF.SameCoordinates,Original*%
%TF.FileFunction,Copper,L1,Top*%
%TF.FilePolarity,Positive*%
%FSLAX46Y46*%
G04 Gerber Fmt 4.6, Leading zero omitted, Abs format (unit mm)*
G04 Created by KiCad (PCBNEW 10.0.3) date 2026-07-12 21:41:13*
%MOMM*%
%LPD*%
G01*
G04 APERTURE LIST*
G04 Aperture macros list*
%AMRoundRect*
0 Rectangle with rounded corners*
0 $1 Rounding radius*
0 $2 $3 $4 $5 $6 $7 $8 $9 X,Y pos of 4 corners*
0 Add a 4 corners polygon primitive as box body*
4,1,4,$2,$3,$4,$5,$6,$7,$8,$9,$2,$3,0*
0 Add four circle primitives for the rounded corners*
1,1,$1+$1,$2,$3*
1,1,$1+$1,$4,$5*
1,1,$1+$1,$6,$7*
1,1,$1+$1,$8,$9*
0 Add four rect primitives between the rounded corners*
20,1,$1+$1,$2,$3,$4,$5,0*
20,1,$1+$1,$4,$5,$6,$7,0*
20,1,$1+$1,$6,$7,$8,$9,0*
20,1,$1+$1,$8,$9,$2,$3,0*%
G04 Aperture macros list end*
%TA.AperFunction,SMDPad,CuDef*%
%ADD10RoundRect,0.075000X-0.662500X-0.075000X0.662500X-0.075000X0.662500X0.075000X-0.662500X0.075000X0*%
%TD*%
%TA.AperFunction,SMDPad,CuDef*%
%ADD11RoundRect,0.075000X-0.075000X-0.662500X0.075000X-0.662500X0.075000X0.662500X-0.075000X0.662500X0*%
%TD*%
%TA.AperFunction,Conductor*%
%ADD12C,0.050000*%
%TD*%
%TA.AperFunction,Conductor*%
%ADD13C,0.100000*%
%TD*%
%TA.AperFunction,Conductor*%
%ADD14C,0.150000*%
%TD*%
%TA.AperFunction,Conductor*%
%ADD15C,0.200000*%
%TD*%
G04 APERTURE END LIST*
D10*
%TO.P,REF\u002A\u002A,1*%
%TO.N,N/C*%
X134337500Y-85750000D03*
%TO.P,REF\u002A\u002A,2*%
X134337500Y-86250000D03*
%TO.P,REF\u002A\u002A,3*%
X134337500Y-86750000D03*
%TO.P,REF\u002A\u002A,4*%
X134337500Y-87250000D03*
%TO.P,REF\u002A\u002A,5*%
X134337500Y-87750000D03*
%TO.P,REF\u002A\u002A,6*%
X134337500Y-88250000D03*
%TO.P,REF\u002A\u002A,7*%
X134337500Y-88750000D03*
%TO.P,REF\u002A\u002A,8*%
X134337500Y-89250000D03*
D11*
%TO.P,REF\u002A\u002A,9*%
X135750000Y-90662500D03*
%TO.P,REF\u002A\u002A,10*%
X136250000Y-90662500D03*
%TO.P,REF\u002A\u002A,11*%
X136750000Y-90662500D03*
%TO.P,REF\u002A\u002A,12*%
X137250000Y-90662500D03*
%TO.P,REF\u002A\u002A,13*%
X137750000Y-90662500D03*
%TO.P,REF\u002A\u002A,14*%
X138250000Y-90662500D03*
%TO.P,REF\u002A\u002A,15*%
X138750000Y-90662500D03*
%TO.P,REF\u002A\u002A,16*%
X139250000Y-90662500D03*
D10*
%TO.P,REF\u002A\u002A,17*%
X140662500Y-89250000D03*
%TO.P,REF\u002A\u002A,18*%
X140662500Y-88750000D03*
%TO.P,REF\u002A\u002A,19*%
X140662500Y-88250000D03*
%TO.P,REF\u002A\u002A,20*%
X140662500Y-87750000D03*
%TO.P,REF\u002A\u002A,21*%
X140662500Y-87250000D03*
%TO.P,REF\u002A\u002A,22*%
X140662500Y-86750000D03*
%TO.P,REF\u002A\u002A,23*%
X140662500Y-86250000D03*
%TO.P,REF\u002A\u002A,24*%
X140662500Y-85750000D03*
D11*
%TO.P,REF\u002A\u002A,25*%
X139250000Y-84337500D03*
%TO.P,REF\u002A\u002A,26*%
X138750000Y-84337500D03*
%TO.P,REF\u002A\u002A,27*%
X138250000Y-84337500D03*
%TO.P,REF\u002A\u002A,28*%
X137750000Y-84337500D03*
%TO.P,REF\u002A\u002A,29*%
X137250000Y-84337500D03*
%TO.P,REF\u002A\u002A,30*%
X136750000Y-84337500D03*
%TO.P,REF\u002A\u002A,31*%
X136250000Y-84337500D03*
%TO.P,REF\u002A\u002A,32*%
X135750000Y-84337500D03*
%TD*%
%TO.N,*%
D12*
X133250000Y-81750000D02*
X133250000Y-85250000D01*
D13*
X132500000Y-81750000D02*
X132500000Y-85250000D01*
D14*
X131750000Y-81750000D02*
X131750000Y-85250000D01*
D15*
X142500000Y-81500000D02*
X142500000Y-82000000D01*
X137750000Y-84337500D02*
X137750000Y-82250000D01*
X146000000Y-85500000D02*
X143250000Y-88250000D01*
X137750000Y-82250000D02*
X138500000Y-81500000D01*
X139000000Y-82500000D02*
X138250000Y-83250000D01*
X143250000Y-88250000D02*
X140662500Y-88250000D01*
X139250000Y-89250000D02*
X139250000Y-90662500D01*
X140662500Y-85750000D02*
X141000000Y-85412500D01*
X141000000Y-84500000D02*
X139000000Y-82500000D01*
X142500000Y-82000000D02*
X146000000Y-85500000D01*
X136750000Y-86750000D02*
X139250000Y-89250000D01*
X138500000Y-81500000D02*
X142500000Y-81500000D01*
X136750000Y-84337500D02*
X136750000Y-86750000D01*
X138250000Y-83250000D02*
X138250000Y-84337500D01*
X141000000Y-85412500D02*
X141000000Y-84500000D01*
%TD*%
%TA.AperFunction,NonConductor*%
G36*
X133093413Y-81005929D02*
G01*
X133112681Y-81006388D01*
X133126247Y-81015570D01*
X133141963Y-81020185D01*
X133154581Y-81034747D01*
X133170543Y-81045551D01*
X133176991Y-81060610D01*
X133187718Y-81072989D01*
X133190460Y-81092063D01*
X133198047Y-81109779D01*
X133195330Y-81125932D01*
X133197662Y-81142147D01*
X133189655Y-81159678D01*
X133186460Y-81178681D01*
X133175442Y-81190800D01*
X133168637Y-81205703D01*
X133152423Y-81216122D01*
X133139462Y-81230381D01*
X133111813Y-81242221D01*
X133109859Y-81243477D01*
X133107053Y-81244264D01*
X133047164Y-81260312D01*
X133047163Y-81260312D01*
X132961997Y-81309482D01*
X132894096Y-81325953D01*
X132837998Y-81309481D01*
X132705447Y-81232952D01*
X132706842Y-81230535D01*
X132663018Y-81195218D01*
X132640955Y-81128924D01*
X132658235Y-81061225D01*
X132709374Y-81013615D01*
X132764876Y-81000500D01*
X133074924Y-81000500D01*
X133093413Y-81005929D01*
G37*
%TD.AperFunction*%
%TA.AperFunction,NonConductor*%
G36*
X131501435Y-81020185D02*
G01*
X131547190Y-81072989D01*
X131557134Y-81142147D01*
X131528109Y-81205703D01*
X131496397Y-81231887D01*
X131396635Y-81289485D01*
X131396632Y-81289487D01*
X131289487Y-81396632D01*
X131289485Y-81396635D01*
X131231887Y-81496397D01*
X131181319Y-81544612D01*
X131112712Y-81557834D01*
X131047848Y-81531866D01*
X131007320Y-81474952D01*
X131000500Y-81434396D01*
X131000500Y-81124500D01*
X131020185Y-81057461D01*
X131072989Y-81011706D01*
X131124500Y-81000500D01*
X131434396Y-81000500D01*
X131501435Y-81020185D01*
G37*
%TD.AperFunction*%
%TA.AperFunction,NonConductor*%
G36*
X140105703Y-84455384D02*
G01*
X140112181Y-84461416D01*
X140363181Y-84712416D01*
X140377884Y-84739343D01*
X140394477Y-84765162D01*
X140395368Y-84771362D01*
X140396666Y-84773739D01*
X140399500Y-84800097D01*
X140399500Y-84975500D01*
X140379815Y-85042539D01*
X140327011Y-85088294D01*
X140275500Y-85099500D01*
X140024500Y-85099500D01*
X139957461Y-85079815D01*
X139911706Y-85027011D01*
X139900500Y-84975500D01*
X139900500Y-84549097D01*
X139920185Y-84482058D01*
X139972989Y-84436303D01*
X140042147Y-84426359D01*
X140105703Y-84455384D01*
G37*
%TD.AperFunction*%
%TA.AperFunction,NonConductor*%
G36*
X137917941Y-81020185D02*
G01*
X137963696Y-81072989D01*
X137973640Y-81142147D01*
X137944615Y-81205703D01*
X137938583Y-81212181D01*
X137269481Y-81881282D01*
X137269479Y-81881285D01*
X137219361Y-81968094D01*
X137219359Y-81968096D01*
X137190425Y-82018209D01*
X137190424Y-82018210D01*
X137190423Y-82018215D01*
X137149499Y-82170943D01*
X137149499Y-82170945D01*
X137149499Y-82339046D01*
X137149500Y-82339059D01*
X137149500Y-82989146D01*
X137149333Y-82989713D01*
X137149495Y-82990283D01*
X137139497Y-83023209D01*
X137129815Y-83056185D01*
X137129368Y-83056572D01*
X137129196Y-83057139D01*
X137102964Y-83079451D01*
X137077011Y-83101940D01*
X137076275Y-83102152D01*
X137075975Y-83102408D01*
X137049773Y-83109802D01*
X137042021Y-83112041D01*
X137041994Y-83112044D01*
X137024764Y-83114313D01*
X137024592Y-83114383D01*
X137016521Y-83115469D01*
X136996477Y-83112399D01*
X136983684Y-83112399D01*
X136983292Y-83115374D01*
X136975237Y-83114313D01*
X136975236Y-83114313D01*
X136940972Y-83109802D01*
X136862727Y-83099500D01*
X136862720Y-83099500D01*
X136637280Y-83099500D01*
X136637272Y-83099500D01*
X136559028Y-83109802D01*
X136524764Y-83114313D01*
X136524762Y-83114313D01*
X136516708Y-83115374D01*
X136516316Y-83112399D01*
X136483684Y-83112399D01*
X136483292Y-83115374D01*
X136475237Y-83114313D01*
X136475236Y-83114313D01*
X136440972Y-83109802D01*
X136362727Y-83099500D01*
X136362720Y-83099500D01*
X136137280Y-83099500D01*
X136137272Y-83099500D01*
X136059028Y-83109802D01*
X136024764Y-83114313D01*
X136024762Y-83114313D01*
X136016708Y-83115374D01*
X136016316Y-83112399D01*
X135983684Y-83112399D01*
X135983292Y-83115374D01*
X135975237Y-83114313D01*
X135975236Y-83114313D01*
X135940972Y-83109802D01*
X135862727Y-83099500D01*
X135862720Y-83099500D01*
X135637280Y-83099500D01*
X135637272Y-83099500D01*
X135524764Y-83114313D01*
X135524763Y-83114313D01*
X135384770Y-83172300D01*
X135264549Y-83264549D01*
X135172300Y-83384770D01*
X135114313Y-83524763D01*
X135114313Y-83524764D01*
X135099500Y-83637272D01*
X135099500Y-84975500D01*
X135079815Y-85042539D01*
X135027011Y-85088294D01*
X134975500Y-85099500D01*
X133899500Y-85099500D01*
X133832461Y-85079815D01*
X133786706Y-85027011D01*
X133775500Y-84975500D01*
X133775500Y-81680819D01*
X133775500Y-81680817D01*
X133739688Y-81547164D01*
X133670505Y-81427335D01*
X133572665Y-81329495D01*
X133572664Y-81329494D01*
X133572661Y-81329492D01*
X133452838Y-81260313D01*
X133452837Y-81260312D01*
X133452836Y-81260312D01*
X133392981Y-81244274D01*
X133333322Y-81207910D01*
X133302793Y-81145063D01*
X133311088Y-81075688D01*
X133355573Y-81021810D01*
X133422125Y-81000535D01*
X133425076Y-81000500D01*
X137850902Y-81000500D01*
X137917941Y-81020185D01*
G37*
%TD.AperFunction*%
%TA.AperFunction,NonConductor*%
G36*
X141836812Y-82108344D02*
G01*
X141864278Y-82112963D01*
X141869877Y-82118053D01*
X141877136Y-82120185D01*
X141895368Y-82141226D01*
X141915978Y-82159962D01*
X141920253Y-82169944D01*
X141922891Y-82172989D01*
X141929869Y-82192398D01*
X141939386Y-82227915D01*
X141940424Y-82231789D01*
X141940425Y-82231790D01*
X141961455Y-82268214D01*
X141961456Y-82268216D01*
X142019475Y-82368709D01*
X142019481Y-82368717D01*
X142138349Y-82487585D01*
X142138355Y-82487590D01*
X145063084Y-85412319D01*
X145096569Y-85473642D01*
X145091585Y-85543334D01*
X145063084Y-85587681D01*
X143037584Y-87613181D01*
X142976261Y-87646666D01*
X142949903Y-87649500D01*
X142010854Y-87649500D01*
X142010289Y-87649334D01*
X142009722Y-87649495D01*
X141976779Y-87639494D01*
X141943815Y-87629815D01*
X141943429Y-87629370D01*
X141942865Y-87629199D01*
X141920551Y-87602967D01*
X141898060Y-87577011D01*
X141897848Y-87576278D01*
X141897594Y-87575979D01*
X141890231Y-87549892D01*
X141887960Y-87542026D01*
X141887940Y-87541878D01*
X141885687Y-87524764D01*
X141885615Y-87524591D01*
X141884531Y-87516526D01*
X141887689Y-87495901D01*
X141887689Y-87483698D01*
X141884626Y-87483295D01*
X141885687Y-87475236D01*
X141900500Y-87362720D01*
X141900500Y-87137280D01*
X141885687Y-87024764D01*
X141885686Y-87024763D01*
X141884626Y-87016705D01*
X141887689Y-87016301D01*
X141887689Y-86983698D01*
X141884626Y-86983295D01*
X141885687Y-86975236D01*
X141900500Y-86862720D01*
X141900500Y-86637280D01*
X141885687Y-86524764D01*
X141885686Y-86524763D01*
X141884626Y-86516705D01*
X141887689Y-86516301D01*
X141887689Y-86483698D01*
X141884626Y-86483295D01*
X141889022Y-86449903D01*
X141900500Y-86362720D01*
X141900500Y-86137280D01*
X141885687Y-86024764D01*
X141885686Y-86024763D01*
X141884626Y-86016705D01*
X141887689Y-86016301D01*
X141887689Y-85983698D01*
X141884626Y-85983295D01*
X141899710Y-85868718D01*
X141900500Y-85862720D01*
X141900500Y-85637280D01*
X141885687Y-85524764D01*
X141827698Y-85384767D01*
X141735451Y-85264549D01*
X141700349Y-85237614D01*
X141649013Y-85198222D01*
X141607811Y-85141794D01*
X141600500Y-85099847D01*
X141600500Y-84420945D01*
X141600500Y-84420943D01*
X141559577Y-84268216D01*
X141559577Y-84268215D01*
X141559577Y-84268214D01*
X141530639Y-84218095D01*
X141530637Y-84218092D01*
X141480520Y-84131284D01*
X141368716Y-84019480D01*
X141368715Y-84019479D01*
X141364385Y-84015149D01*
X141364374Y-84015139D01*
X139661416Y-82312181D01*
X139627931Y-82250858D01*
X139632915Y-82181166D01*
X139674787Y-82125233D01*
X139740251Y-82100816D01*
X139749097Y-82100500D01*
X141810097Y-82100500D01*
X141836812Y-82108344D01*
G37*
%TD.AperFunction*%
%TA.AperFunction,NonConductor*%
G36*
X137504104Y-85562689D02*
G01*
X137516302Y-85562689D01*
X137516705Y-85559626D01*
X137524763Y-85560686D01*
X137524764Y-85560687D01*
X137637280Y-85575500D01*
X137637287Y-85575500D01*
X137862713Y-85575500D01*
X137862720Y-85575500D01*
X137975236Y-85560687D01*
X137975236Y-85560686D01*
X137983295Y-85559626D01*
X137983698Y-85562689D01*
X138016302Y-85562689D01*
X138016705Y-85559626D01*
X138024763Y-85560686D01*
X138024764Y-85560687D01*
X138137280Y-85575500D01*
X138137287Y-85575500D01*
X138362713Y-85575500D01*
X138362720Y-85575500D01*
X138475236Y-85560687D01*
X138475236Y-85560686D01*
X138483295Y-85559626D01*
X138483698Y-85562689D01*
X138516302Y-85562689D01*
X138516705Y-85559626D01*
X138524763Y-85560686D01*
X138524764Y-85560687D01*
X138637280Y-85575500D01*
X138637287Y-85575500D01*
X138862713Y-85575500D01*
X138862720Y-85575500D01*
X138975236Y-85560687D01*
X138975236Y-85560686D01*
X138983295Y-85559626D01*
X138983698Y-85562689D01*
X139016302Y-85562689D01*
X139016705Y-85559626D01*
X139024763Y-85560686D01*
X139024764Y-85560687D01*
X139137280Y-85575500D01*
X139137287Y-85575500D01*
X139300500Y-85575500D01*
X139367539Y-85595185D01*
X139413294Y-85647989D01*
X139424500Y-85699500D01*
X139424500Y-85862727D01*
X139440374Y-85983292D01*
X139437399Y-85983683D01*
X139437399Y-86016316D01*
X139440374Y-86016708D01*
X139424500Y-86137272D01*
X139424500Y-86362727D01*
X139440374Y-86483292D01*
X139437399Y-86483683D01*
X139437399Y-86516316D01*
X139440374Y-86516708D01*
X139424500Y-86637272D01*
X139424500Y-86862727D01*
X139440374Y-86983292D01*
X139437399Y-86983683D01*
X139437399Y-87016316D01*
X139440374Y-87016708D01*
X139424500Y-87137272D01*
X139424500Y-87362727D01*
X139440374Y-87483292D01*
X139437399Y-87483683D01*
X139437399Y-87516316D01*
X139440374Y-87516708D01*
X139439313Y-87524762D01*
X139439313Y-87524764D01*
X139436005Y-87549892D01*
X139424500Y-87637272D01*
X139424500Y-87862727D01*
X139440374Y-87983292D01*
X139437399Y-87983683D01*
X139437399Y-88016316D01*
X139440374Y-88016708D01*
X139424500Y-88137272D01*
X139424500Y-88275903D01*
X139404815Y-88342942D01*
X139352011Y-88388697D01*
X139282853Y-88398641D01*
X139219297Y-88369616D01*
X139212819Y-88363584D01*
X137386819Y-86537584D01*
X137353334Y-86476261D01*
X137350500Y-86449903D01*
X137350500Y-85685853D01*
X137350666Y-85685285D01*
X137350505Y-85684716D01*
X137360502Y-85651789D01*
X137370185Y-85618814D01*
X137370631Y-85618426D01*
X137370804Y-85617860D01*
X137397035Y-85595547D01*
X137422989Y-85573059D01*
X137423724Y-85572846D01*
X137424025Y-85572591D01*
X137450144Y-85565219D01*
X137457973Y-85562959D01*
X137475236Y-85560687D01*
X137475410Y-85560614D01*
X137483479Y-85559530D01*
X137504104Y-85562689D01*
G37*
%TD.AperFunction*%
%TA.AperFunction,NonConductor*%
G36*
X136024589Y-85560614D02*
G01*
X136024764Y-85560687D01*
X136042023Y-85562959D01*
X136073841Y-85577138D01*
X136105579Y-85591178D01*
X136105676Y-85591326D01*
X136105840Y-85591399D01*
X136124955Y-85620552D01*
X136144052Y-85649502D01*
X136144054Y-85649679D01*
X136144152Y-85649829D01*
X136149500Y-85685853D01*
X136149500Y-86663330D01*
X136149499Y-86663348D01*
X136149499Y-86829054D01*
X136149498Y-86829054D01*
X136149499Y-86829057D01*
X136190423Y-86981785D01*
X136215237Y-87024764D01*
X136269477Y-87118712D01*
X136269481Y-87118717D01*
X136388349Y-87237585D01*
X136388355Y-87237590D01*
X138363584Y-89212819D01*
X138397069Y-89274142D01*
X138392085Y-89343834D01*
X138350213Y-89399767D01*
X138284749Y-89424184D01*
X138275903Y-89424500D01*
X138137272Y-89424500D01*
X138050393Y-89435938D01*
X138024764Y-89439313D01*
X138024762Y-89439313D01*
X138016708Y-89440374D01*
X138016316Y-89437399D01*
X137983684Y-89437399D01*
X137983292Y-89440374D01*
X137975237Y-89439313D01*
X137975236Y-89439313D01*
X137946271Y-89435499D01*
X137862727Y-89424500D01*
X137862720Y-89424500D01*
X137637280Y-89424500D01*
X137637272Y-89424500D01*
X137550393Y-89435938D01*
X137524764Y-89439313D01*
X137524762Y-89439313D01*
X137516708Y-89440374D01*
X137516316Y-89437399D01*
X137483684Y-89437399D01*
X137483292Y-89440374D01*
X137475237Y-89439313D01*
X137475236Y-89439313D01*
X137446271Y-89435499D01*
X137362727Y-89424500D01*
X137362720Y-89424500D01*
X137137280Y-89424500D01*
X137137272Y-89424500D01*
X137050393Y-89435938D01*
X137024764Y-89439313D01*
X137024762Y-89439313D01*
X137016708Y-89440374D01*
X137016316Y-89437399D01*
X136983684Y-89437399D01*
X136983292Y-89440374D01*
X136975237Y-89439313D01*
X136975236Y-89439313D01*
X136946271Y-89435499D01*
X136862727Y-89424500D01*
X136862720Y-89424500D01*
X136637280Y-89424500D01*
X136637272Y-89424500D01*
X136550393Y-89435938D01*
X136524764Y-89439313D01*
X136524762Y-89439313D01*
X136516708Y-89440374D01*
X136516316Y-89437399D01*
X136483684Y-89437399D01*
X136483292Y-89440374D01*
X136475237Y-89439313D01*
X136475236Y-89439313D01*
X136446271Y-89435499D01*
X136362727Y-89424500D01*
X136362720Y-89424500D01*
X136137280Y-89424500D01*
X136137272Y-89424500D01*
X136050393Y-89435938D01*
X136024764Y-89439313D01*
X136024762Y-89439313D01*
X136016708Y-89440374D01*
X136016316Y-89437399D01*
X135983684Y-89437399D01*
X135983292Y-89440374D01*
X135975237Y-89439313D01*
X135975236Y-89439313D01*
X135946271Y-89435499D01*
X135862727Y-89424500D01*
X135862720Y-89424500D01*
X135699500Y-89424500D01*
X135632461Y-89404815D01*
X135586706Y-89352011D01*
X135575500Y-89300500D01*
X135575500Y-89137286D01*
X135575500Y-89137280D01*
X135560687Y-89024764D01*
X135560686Y-89024763D01*
X135559626Y-89016705D01*
X135562689Y-89016301D01*
X135562689Y-88983698D01*
X135559626Y-88983295D01*
X135560687Y-88975236D01*
X135575500Y-88862720D01*
X135575500Y-88637280D01*
X135560687Y-88524764D01*
X135560686Y-88524763D01*
X135559626Y-88516705D01*
X135562689Y-88516301D01*
X135562689Y-88483698D01*
X135559626Y-88483295D01*
X135560687Y-88475236D01*
X135575500Y-88362720D01*
X135575500Y-88137280D01*
X135560687Y-88024764D01*
X135560686Y-88024763D01*
X135559626Y-88016705D01*
X135562689Y-88016301D01*
X135562689Y-87983698D01*
X135559626Y-87983295D01*
X135560687Y-87975236D01*
X135575500Y-87862720D01*
X135575500Y-87637280D01*
X135560687Y-87524764D01*
X135560686Y-87524763D01*
X135559626Y-87516705D01*
X135562689Y-87516301D01*
X135562689Y-87483698D01*
X135559626Y-87483295D01*
X135560687Y-87475236D01*
X135575500Y-87362720D01*
X135575500Y-87137280D01*
X135560687Y-87024764D01*
X135560686Y-87024763D01*
X135559626Y-87016705D01*
X135562689Y-87016301D01*
X135562689Y-86983698D01*
X135559626Y-86983295D01*
X135560687Y-86975236D01*
X135575500Y-86862720D01*
X135575500Y-86637280D01*
X135560687Y-86524764D01*
X135560686Y-86524763D01*
X135559626Y-86516705D01*
X135562689Y-86516301D01*
X135562689Y-86483698D01*
X135559626Y-86483295D01*
X135564022Y-86449903D01*
X135575500Y-86362720D01*
X135575500Y-86137280D01*
X135560687Y-86024764D01*
X135560686Y-86024763D01*
X135559626Y-86016705D01*
X135562689Y-86016301D01*
X135562689Y-85983698D01*
X135559626Y-85983295D01*
X135574710Y-85868718D01*
X135575500Y-85862720D01*
X135575500Y-85699500D01*
X135595185Y-85632461D01*
X135647989Y-85586706D01*
X135699500Y-85575500D01*
X135862713Y-85575500D01*
X135862720Y-85575500D01*
X135975236Y-85560687D01*
X135975237Y-85560686D01*
X135981096Y-85559915D01*
X135981228Y-85559854D01*
X135981588Y-85559850D01*
X135983295Y-85559626D01*
X135983322Y-85559834D01*
X136016521Y-85559530D01*
X136024589Y-85560614D01*
G37*
%TD.AperFunction*%
%TA.AperFunction,NonConductor*%
G36*
X146942539Y-81020185D02*
G01*
X146988294Y-81072989D01*
X146999500Y-81124500D01*
X146999500Y-91875500D01*
X146979815Y-91942539D01*
X146927011Y-91988294D01*
X146875500Y-91999500D01*
X139756628Y-91999500D01*
X139689589Y-91979815D01*
X139643834Y-91927011D01*
X139633890Y-91857853D01*
X139662915Y-91794297D01*
X139681141Y-91777125D01*
X139689963Y-91770354D01*
X139735451Y-91735451D01*
X139827698Y-91615233D01*
X139885687Y-91475236D01*
X139900500Y-91362720D01*
X139900500Y-90024500D01*
X139920185Y-89957461D01*
X139972989Y-89911706D01*
X140024500Y-89900500D01*
X141362713Y-89900500D01*
X141362720Y-89900500D01*
X141475236Y-89885687D01*
X141615233Y-89827698D01*
X141735451Y-89735451D01*
X141827698Y-89615233D01*
X141885687Y-89475236D01*
X141900500Y-89362720D01*
X141900500Y-89137280D01*
X141885687Y-89024764D01*
X141885685Y-89024760D01*
X141884914Y-89018899D01*
X141884853Y-89018767D01*
X141884866Y-89018529D01*
X141884626Y-89016705D01*
X141884970Y-89016659D01*
X141885760Y-89002452D01*
X141884531Y-88983474D01*
X141885615Y-88975408D01*
X141885687Y-88975236D01*
X141887960Y-88957974D01*
X141902076Y-88926301D01*
X141916182Y-88894417D01*
X141916331Y-88894318D01*
X141916404Y-88894156D01*
X141945478Y-88875093D01*
X141974507Y-88855947D01*
X141974733Y-88855913D01*
X141974834Y-88855847D01*
X141975196Y-88855843D01*
X142010854Y-88850500D01*
X143163331Y-88850500D01*
X143163347Y-88850501D01*
X143170943Y-88850501D01*
X143329054Y-88850501D01*
X143329057Y-88850501D01*
X143481785Y-88809577D01*
X143531904Y-88780639D01*
X143618716Y-88730520D01*
X143730520Y-88618716D01*
X143730520Y-88618714D01*
X143740728Y-88608507D01*
X143740729Y-88608504D01*
X146480519Y-85868716D01*
X146559577Y-85731785D01*
X146600500Y-85579058D01*
X146600500Y-85420943D01*
X146559577Y-85268216D01*
X146500677Y-85166199D01*
X146480521Y-85131287D01*
X146480516Y-85131281D01*
X143136819Y-81787584D01*
X143103334Y-81726261D01*
X143100500Y-81699903D01*
X143100500Y-81420945D01*
X143100500Y-81420943D01*
X143059577Y-81268216D01*
X143012397Y-81186498D01*
X142995926Y-81118599D01*
X143018779Y-81052572D01*
X143073701Y-81009382D01*
X143119786Y-81000500D01*
X146875500Y-81000500D01*
X146942539Y-81020185D01*
G37*
%TD.AperFunction*%
%TA.AperFunction,NonConductor*%
G36*
X131205703Y-85471890D02*
G01*
X131231887Y-85503603D01*
X131289485Y-85603365D01*
X131396635Y-85710515D01*
X131487510Y-85762982D01*
X131527861Y-85786279D01*
X131527865Y-85786281D01*
X131674234Y-85825500D01*
X131674236Y-85825500D01*
X131825764Y-85825500D01*
X131825766Y-85825500D01*
X131972135Y-85786281D01*
X132088000Y-85719385D01*
X132155899Y-85702912D01*
X132211998Y-85719384D01*
X132287515Y-85762984D01*
X132427525Y-85800500D01*
X132427528Y-85800500D01*
X132572472Y-85800500D01*
X132572475Y-85800500D01*
X132712485Y-85762984D01*
X132838001Y-85690516D01*
X132849662Y-85687687D01*
X132859440Y-85680725D01*
X132882986Y-85679603D01*
X132905897Y-85674045D01*
X132918985Y-85677888D01*
X132929231Y-85677400D01*
X132961996Y-85690516D01*
X133037500Y-85734109D01*
X133085715Y-85784674D01*
X133099500Y-85841495D01*
X133099500Y-85862727D01*
X133115374Y-85983292D01*
X133112399Y-85983683D01*
X133112399Y-86016316D01*
X133115374Y-86016708D01*
X133099500Y-86137272D01*
X133099500Y-86362727D01*
X133115374Y-86483292D01*
X133112399Y-86483683D01*
X133112399Y-86516316D01*
X133115374Y-86516708D01*
X133099500Y-86637272D01*
X133099500Y-86862727D01*
X133115374Y-86983292D01*
X133112399Y-86983683D01*
X133112399Y-87016316D01*
X133115374Y-87016708D01*
X133099500Y-87137272D01*
X133099500Y-87362727D01*
X133115374Y-87483292D01*
X133112399Y-87483683D01*
X133112399Y-87516316D01*
X133115374Y-87516708D01*
X133114313Y-87524762D01*
X133114313Y-87524764D01*
X133111005Y-87549892D01*
X133099500Y-87637272D01*
X133099500Y-87862727D01*
X133115374Y-87983292D01*
X133112399Y-87983683D01*
X133112399Y-88016316D01*
X133115374Y-88016708D01*
X133099500Y-88137272D01*
X133099500Y-88362727D01*
X133115374Y-88483292D01*
X133112399Y-88483683D01*
X133112399Y-88516316D01*
X133115374Y-88516708D01*
X133099500Y-88637272D01*
X133099500Y-88862727D01*
X133110499Y-88946271D01*
X133112040Y-88957974D01*
X133115374Y-88983292D01*
X133112399Y-88983683D01*
X133112399Y-89016316D01*
X133115374Y-89016708D01*
X133099500Y-89137272D01*
X133099500Y-89362727D01*
X133109723Y-89440374D01*
X133114313Y-89475236D01*
X133172302Y-89615233D01*
X133264549Y-89735451D01*
X133384767Y-89827698D01*
X133524764Y-89885687D01*
X133637280Y-89900500D01*
X133637287Y-89900500D01*
X134975500Y-89900500D01*
X135042539Y-89920185D01*
X135088294Y-89972989D01*
X135099500Y-90024500D01*
X135099500Y-91362727D01*
X135112461Y-91461171D01*
X135114313Y-91475236D01*
X135172302Y-91615233D01*
X135264549Y-91735451D01*
X135301435Y-91763755D01*
X135318859Y-91777125D01*
X135360061Y-91833553D01*
X135364216Y-91903299D01*
X135330003Y-91964219D01*
X135268286Y-91996971D01*
X135243372Y-91999500D01*
X131124500Y-91999500D01*
X131057461Y-91979815D01*
X131011706Y-91927011D01*
X131000500Y-91875500D01*
X131000500Y-85565603D01*
X131020185Y-85498564D01*
X131072989Y-85452809D01*
X131142147Y-85442865D01*
X131205703Y-85471890D01*
G37*
%TD.AperFunction*%
M02*
